<?xml version="1.0" encoding="UTF-8"?>
<svg xmlns="http://www.w3.org/2000/svg" xmlns:xlink="http://www.w3.org/1999/xlink" width="24pt" height="24pt" viewBox="0 0 24 24" version="1.1">
<g id="surface1">
<path style=" stroke:none;fill-rule:nonzero;fill:rgb(100%,23.137255%,18.823529%);fill-opacity:1;" d="M 4.6875 4.6875 C 3.75 5.585938 3.75 5.699219 3.75 12 C 3.75 18.300781 3.75 18.414062 4.6875 19.3125 C 5.585938 20.25 5.699219 20.25 12 20.25 C 18.300781 20.25 18.414062 20.25 19.3125 19.3125 C 20.25 18.414062 20.25 18.300781 20.25 12 C 20.25 5.699219 20.25 5.585938 19.3125 4.6875 C 18.414062 3.75 18.300781 3.75 12 3.75 C 5.699219 3.75 5.585938 3.75 4.6875 4.6875 Z M 10.125 8.851562 L 12 10.613281 L 13.875 8.851562 C 14.925781 7.875 15.976562 7.125 16.199219 7.199219 C 17.136719 7.539062 16.875 8.289062 15.148438 10.125 L 13.386719 12 L 15.148438 13.875 C 16.875 15.710938 17.136719 16.460938 16.199219 16.800781 C 15.976562 16.875 14.925781 16.125 13.875 15.148438 L 12 13.386719 L 10.125 15.148438 C 8.289062 16.875 7.539062 17.136719 7.199219 16.199219 C 7.125 15.976562 7.875 14.925781 8.851562 13.875 L 10.613281 12 L 8.851562 10.125 C 7.125 8.289062 6.898438 7.835938 7.386719 7.386719 C 7.835938 6.898438 8.289062 7.125 10.125 8.851562 Z M 10.125 8.851562 "/>
</g>
</svg>

